# xmcd
#
# Track frame offsets:
#	150
#	12065
#	28085
#	39925
#	52647
#	67455
#	81630
#	91642
#	109997
#	119725
#	129010
#	139232
#
# Disc length: 2105 seconds
# Revision: 5
# Processed by: cddbd v1.5.2PL0 Copyright (c) Steve Scherf et al.
# Submitted via: dBpowerAMP V12.0
#
DISCID=9e08370c
DTITLE=Riders in the Sky - Cowboy Songs
DYEAR=1996
DGENRE=Country
TTITLE0=Jingle, Jangle, Jingle
TTITLE1=Tumbling Tumbleweeds
TTITLE2=Don't Fence Me In
TTITLE3=Cattle Call
TTITLE4=Ghost Riders in the Sky
TTITLE5=The Streets of Laredo
TTITLE6=I Ride an Old Paint
TTITLE7=Red River Valley
TTITLE8=Rawhide
TTITLE9=Chasin' the Sun
TTITLE10=Back in the Saddle Again
TTITLE11=Home on the Range
EXTD=
EXTT0=
EXTT1=
EXTT2=
EXTT3=
EXTT4=
EXTT5=
EXTT6=
EXTT7=
EXTT8=
EXTT9=
EXTT10=
EXTT11=
PLAYORDER=
